<svg width="96" height="17" viewBox="0 0 96 17" fill="none" xmlns="http://www.w3.org/2000/svg">
    <g clip-path="url(#clip0_2023_10927)">
        <path d="M7.25672 1.43427C7.53172 0.781104 8.46832 0.781105 8.74332 1.43427L10.3663 5.28939C10.4823 5.56476 10.7445 5.7529 11.0454 5.77673L15.2582 6.11039C15.9719 6.16693 16.2614 7.04692 15.7175 7.50713L12.5079 10.2234C12.2786 10.4174 12.1784 10.7218 12.2485 11.0119L13.2291 15.0732C13.3952 15.7613 12.6375 16.3052 12.0264 15.9365L8.41965 13.7601C8.16202 13.6046 7.83802 13.6046 7.5804 13.7601L3.9736 15.9365C3.3625 16.3052 2.60477 15.7613 2.77091 15.0732L3.75155 11.0119C3.82159 10.7218 3.72147 10.4174 3.49221 10.2234L0.28245 7.50713C-0.261375 7.04692 0.0280544 6.16693 0.741835 6.11039L4.9547 5.77673C5.25561 5.7529 5.51774 5.56476 5.63367 5.28939L7.25672 1.43427Z" fill="black"/>
        <path d="M27.2567 1.43427C27.5317 0.781104 28.4683 0.781105 28.7433 1.43427L30.3663 5.28939C30.4823 5.56476 30.7445 5.7529 31.0454 5.77673L35.2582 6.11039C35.9719 6.16693 36.2614 7.04692 35.7175 7.50713L32.5079 10.2234C32.2786 10.4174 32.1784 10.7218 32.2485 11.0119L33.2291 15.0732C33.3952 15.7613 32.6375 16.3052 32.0264 15.9365L28.4196 13.7601C28.162 13.6046 27.838 13.6046 27.5804 13.7601L23.9736 15.9365C23.3625 16.3052 22.6048 15.7613 22.7709 15.0732L23.7515 11.0119C23.8216 10.7218 23.7215 10.4174 23.4922 10.2234L20.2825 7.50713C19.7386 7.04692 20.0281 6.16693 20.7418 6.11039L24.9547 5.77673C25.2556 5.7529 25.5177 5.56476 25.6337 5.28939L27.2567 1.43427Z" fill="black"/>
        <path d="M47.2567 1.43427C47.5317 0.781104 48.4683 0.781105 48.7433 1.43427L50.3663 5.28939C50.4823 5.56476 50.7445 5.7529 51.0454 5.77673L55.2582 6.11039C55.9719 6.16693 56.2614 7.04692 55.7175 7.50713L52.5079 10.2234C52.2786 10.4174 52.1784 10.7218 52.2485 11.0119L53.2291 15.0732C53.3952 15.7613 52.6375 16.3052 52.0264 15.9365L48.4196 13.7601C48.162 13.6046 47.838 13.6046 47.5804 13.7601L43.9736 15.9365C43.3625 16.3052 42.6048 15.7613 42.7709 15.0732L43.7515 11.0119C43.8216 10.7218 43.7215 10.4174 43.4922 10.2234L40.2825 7.50713C39.7386 7.04692 40.0281 6.16693 40.7418 6.11039L44.9547 5.77673C45.2556 5.7529 45.5177 5.56476 45.6337 5.28939L47.2567 1.43427Z" fill="black"/>
        <path fill-rule="evenodd" clip-rule="evenodd" d="M75.9144 6.55599L75.9782 6.75599C76.0307 6.90694 75.9865 7.07471 75.8665 7.17999L71.9892 10.5L73.138 15.476C73.1769 15.635 73.1172 15.802 72.9864 15.9L72.8109 16.02C72.7427 16.0736 72.6582 16.1018 72.5716 16.1C72.4985 16.1015 72.4266 16.0821 72.3642 16.044L68.0002 13.38L63.6601 16.044C63.5977 16.0821 63.5257 16.1015 63.4527 16.1C63.3661 16.1018 63.2815 16.0736 63.2133 16.02L63.0139 15.9C62.8831 15.802 62.8234 15.635 62.8623 15.476L64.0111 10.5L60.1418 7.18799C60.0156 7.08334 59.9678 6.91091 60.0221 6.75599L60.1099 6.55599C60.1565 6.39793 60.2968 6.28603 60.4609 6.27599L65.5589 5.86799L67.5135 1.15599C67.5761 0.999507 67.7283 0.897778 67.8965 0.899991H68.1039C68.2705 0.896446 68.4211 0.99923 68.4788 1.15599L70.4654 5.86799L75.5634 6.27599C75.7275 6.28603 75.8677 6.39793 75.9144 6.55599ZM71.2871 13.748L70.3936 10.004L73.3215 7.49999L69.4841 7.19599L68.0002 3.62799V11.74L71.2871 13.748Z" fill="black"/>
        <path d="M89.9056 5.48351L89.9055 5.4834L88.2825 1.62829C88.1793 1.3831 87.8208 1.3831 87.7175 1.62829L86.0945 5.48341C85.9051 5.93326 85.479 6.23678 84.9942 6.27517L80.7813 6.60883C80.5019 6.63096 80.4106 6.96053 80.6054 7.12546C80.6054 7.12546 80.6054 7.12546 80.6054 7.12546L83.8152 9.84168L83.8152 9.84171C84.1876 10.1569 84.3524 10.6539 84.2376 11.1292C84.2376 11.1292 84.2376 11.1293 84.2376 11.1293L83.2569 15.1906C83.199 15.4305 83.4698 15.6565 83.7153 15.5084L89.9056 5.48351ZM89.9056 5.48351C90.095 5.93325 90.5211 6.23677 91.0059 6.27517L95.2187 6.60883C95.4981 6.63096 95.5894 6.96053 95.3946 7.12546L92.1849 9.84168L92.1848 9.84172C91.8125 10.1568 91.6476 10.6538 91.7624 11.1293L92.7431 15.1906C92.801 15.4305 92.5302 15.6565 92.2848 15.5084C92.2847 15.5084 92.2847 15.5084 92.2847 15.5084L88.678 13.332L89.9056 5.48351ZM87.3221 13.332L83.7153 15.5084L88.678 13.332C88.2615 13.0806 87.7386 13.0806 87.3221 13.332C87.3221 13.332 87.3221 13.332 87.3221 13.332Z" stroke="black"/>
    </g>
    <defs>
        <clipPath id="clip0_2023_10927">
            <rect width="96" height="15.2002" fill="white" transform="translate(0 0.899902)"/>
        </clipPath>
    </defs>
</svg>